<svg width="528" height="400" viewBox="0 0 528 400" fill="none" xmlns="http://www.w3.org/2000/svg">
<rect width="528" height="400" fill="#120151"/>
<ellipse cx="285" cy="337" rx="163" ry="48" fill="#D9D9D9"/>
<path d="M38 3.5L134.5 316C150.504 312.11 177.222 306.071 203.5 301.079C209.407 265.924 218.625 211.06 218.625 211.06C218.625 211.06 89.3653 59.017 38 3.5Z" fill="#D9D9D9" fill-opacity="0.75"/>
<path d="M408.5 316C412.9 325.6 472.333 111.667 501.5 3.5L324 211.06L347.5 299.182C347.5 299.182 405.768 310.039 408.5 316Z" fill="#D9D9D9" fill-opacity="0.75"/>
<path d="M203.5 301.079C226.754 296.661 238.664 293.063 253.5 292.5C266.794 291.995 244.5 267 218.625 211.06C218.625 211.06 209.407 265.924 203.5 301.079Z" fill="#D9D9D9" fill-opacity="0.75"/>
<path d="M296 292.5C309.331 293.953 347.5 299.182 347.5 299.182L324 211.06L296 292.5Z" fill="#D9D9D9" fill-opacity="0.75"/>
<path d="M203.5 301.079C177.222 306.071 150.504 312.11 134.5 316L38 3.5C89.3653 59.017 218.625 211.06 218.625 211.06M203.5 301.079C226.754 296.661 238.664 293.063 253.5 292.5C266.794 291.995 244.5 267 218.625 211.06M203.5 301.079C209.407 265.924 218.625 211.06 218.625 211.06M347.5 299.182C347.5 299.182 309.331 293.953 296 292.5L324 211.06M347.5 299.182C347.5 299.182 405.768 310.039 408.5 316C412.9 325.6 472.333 111.667 501.5 3.5L324 211.06M347.5 299.182L324 211.06M218.625 211.06L253.5 3.5L324 211.06" stroke="#631E1E" stroke-opacity="0.65"/>
<path d="M255 6.5L204.5 299C238.167 295.5 346.5 299 346.5 299L255 6.5Z" fill="#D9D9D9" fill-opacity="0.5" stroke="#631E1E" stroke-opacity="0.65"/>
</svg>
